<mxfile host="Electron" modified="2023-05-12T19:52:24.545Z" agent="Mozilla/5.0 (Windows NT 10.0; Win64; x64) AppleWebKit/537.36 (KHTML, like Gecko) draw.io/21.2.8 Chrome/112.0.5615.165 Electron/24.2.0 Safari/537.36" etag="vindkxpU5AdK2JLHM1sO" version="21.2.8" type="device">
  <diagram id="C5RBs43oDa-KdzZeNtuy" name="Page-1">
    <mxGraphModel dx="1195" dy="703" grid="1" gridSize="10" guides="1" tooltips="1" connect="1" arrows="1" fold="1" page="1" pageScale="1" pageWidth="827" pageHeight="1169" math="0" shadow="0">
      <root>
        <mxCell id="WIyWlLk6GJQsqaUBKTNV-0" />
        <mxCell id="WIyWlLk6GJQsqaUBKTNV-1" parent="WIyWlLk6GJQsqaUBKTNV-0" />
        <mxCell id="eClR7Fw50EL44MByxG-4-2" value="root" style="sketch=0;pointerEvents=1;shadow=0;dashed=0;html=1;strokeColor=none;fillColor=#434445;aspect=fixed;labelPosition=center;verticalLabelPosition=bottom;verticalAlign=top;align=center;outlineConnect=0;shape=mxgraph.vvd.folder;" vertex="1" parent="WIyWlLk6GJQsqaUBKTNV-1">
          <mxGeometry x="350.26" y="80" width="39.48" height="30" as="geometry" />
        </mxCell>
        <mxCell id="eClR7Fw50EL44MByxG-4-5" value="" style="group" vertex="1" connectable="0" parent="WIyWlLk6GJQsqaUBKTNV-1">
          <mxGeometry x="340" y="190" width="60" height="70" as="geometry" />
        </mxCell>
        <mxCell id="eClR7Fw50EL44MByxG-4-1" value="" style="shape=note;whiteSpace=wrap;html=1;backgroundOutline=1;darkOpacity=0.05;size=12;" vertex="1" parent="eClR7Fw50EL44MByxG-4-5">
          <mxGeometry x="15" width="30" height="40" as="geometry" />
        </mxCell>
        <mxCell id="eClR7Fw50EL44MByxG-4-4" value="file1" style="text;html=1;strokeColor=none;fillColor=none;align=center;verticalAlign=middle;whiteSpace=wrap;rounded=0;" vertex="1" parent="eClR7Fw50EL44MByxG-4-5">
          <mxGeometry y="40" width="60" height="30" as="geometry" />
        </mxCell>
        <mxCell id="eClR7Fw50EL44MByxG-4-6" value="directory1" style="sketch=0;pointerEvents=1;shadow=0;dashed=0;html=1;strokeColor=none;fillColor=#434445;aspect=fixed;labelPosition=center;verticalLabelPosition=bottom;verticalAlign=top;align=center;outlineConnect=0;shape=mxgraph.vvd.folder;" vertex="1" parent="WIyWlLk6GJQsqaUBKTNV-1">
          <mxGeometry x="220.26" y="160" width="39.48" height="30" as="geometry" />
        </mxCell>
        <mxCell id="eClR7Fw50EL44MByxG-4-7" value="directory2" style="sketch=0;pointerEvents=1;shadow=0;dashed=0;html=1;strokeColor=none;fillColor=#434445;aspect=fixed;labelPosition=center;verticalLabelPosition=bottom;verticalAlign=top;align=center;outlineConnect=0;shape=mxgraph.vvd.folder;" vertex="1" parent="WIyWlLk6GJQsqaUBKTNV-1">
          <mxGeometry x="480" y="160" width="39.48" height="30" as="geometry" />
        </mxCell>
        <mxCell id="eClR7Fw50EL44MByxG-4-8" value="" style="group" vertex="1" connectable="0" parent="WIyWlLk6GJQsqaUBKTNV-1">
          <mxGeometry x="160.26" y="276" width="60" height="70" as="geometry" />
        </mxCell>
        <mxCell id="eClR7Fw50EL44MByxG-4-9" value="" style="shape=note;whiteSpace=wrap;html=1;backgroundOutline=1;darkOpacity=0.05;size=12;" vertex="1" parent="eClR7Fw50EL44MByxG-4-8">
          <mxGeometry x="15" width="30" height="40" as="geometry" />
        </mxCell>
        <mxCell id="eClR7Fw50EL44MByxG-4-10" value="file2" style="text;html=1;strokeColor=none;fillColor=none;align=center;verticalAlign=middle;whiteSpace=wrap;rounded=0;" vertex="1" parent="eClR7Fw50EL44MByxG-4-8">
          <mxGeometry y="40" width="60" height="30" as="geometry" />
        </mxCell>
        <mxCell id="eClR7Fw50EL44MByxG-4-11" value="" style="group" vertex="1" connectable="0" parent="WIyWlLk6GJQsqaUBKTNV-1">
          <mxGeometry x="259.74" y="276" width="60" height="70" as="geometry" />
        </mxCell>
        <mxCell id="eClR7Fw50EL44MByxG-4-12" value="" style="shape=note;whiteSpace=wrap;html=1;backgroundOutline=1;darkOpacity=0.05;size=12;" vertex="1" parent="eClR7Fw50EL44MByxG-4-11">
          <mxGeometry x="15" width="30" height="40" as="geometry" />
        </mxCell>
        <mxCell id="eClR7Fw50EL44MByxG-4-13" value="file3" style="text;html=1;strokeColor=none;fillColor=none;align=center;verticalAlign=middle;whiteSpace=wrap;rounded=0;" vertex="1" parent="eClR7Fw50EL44MByxG-4-11">
          <mxGeometry y="40" width="60" height="30" as="geometry" />
        </mxCell>
        <mxCell id="eClR7Fw50EL44MByxG-4-14" value="" style="group" vertex="1" connectable="0" parent="WIyWlLk6GJQsqaUBKTNV-1">
          <mxGeometry x="469.74" y="276" width="60" height="70" as="geometry" />
        </mxCell>
        <mxCell id="eClR7Fw50EL44MByxG-4-15" value="" style="shape=note;whiteSpace=wrap;html=1;backgroundOutline=1;darkOpacity=0.05;size=12;" vertex="1" parent="eClR7Fw50EL44MByxG-4-14">
          <mxGeometry x="15" width="30" height="40" as="geometry" />
        </mxCell>
        <mxCell id="eClR7Fw50EL44MByxG-4-16" value="file4" style="text;html=1;strokeColor=none;fillColor=none;align=center;verticalAlign=middle;whiteSpace=wrap;rounded=0;" vertex="1" parent="eClR7Fw50EL44MByxG-4-14">
          <mxGeometry y="40" width="60" height="30" as="geometry" />
        </mxCell>
        <mxCell id="eClR7Fw50EL44MByxG-4-18" value="" style="endArrow=open;endFill=1;endSize=12;html=1;rounded=0;" edge="1" parent="WIyWlLk6GJQsqaUBKTNV-1" target="eClR7Fw50EL44MByxG-4-6">
          <mxGeometry width="160" relative="1" as="geometry">
            <mxPoint x="340" y="110" as="sourcePoint" />
            <mxPoint x="450" y="260" as="targetPoint" />
          </mxGeometry>
        </mxCell>
        <mxCell id="eClR7Fw50EL44MByxG-4-19" value="" style="endArrow=open;endFill=1;endSize=12;html=1;rounded=0;" edge="1" parent="WIyWlLk6GJQsqaUBKTNV-1" target="eClR7Fw50EL44MByxG-4-7">
          <mxGeometry width="160" relative="1" as="geometry">
            <mxPoint x="400" y="110" as="sourcePoint" />
            <mxPoint x="270" y="173" as="targetPoint" />
          </mxGeometry>
        </mxCell>
        <mxCell id="eClR7Fw50EL44MByxG-4-20" value="" style="endArrow=open;endFill=1;endSize=12;html=1;rounded=0;" edge="1" parent="WIyWlLk6GJQsqaUBKTNV-1">
          <mxGeometry width="160" relative="1" as="geometry">
            <mxPoint x="370" y="140" as="sourcePoint" />
            <mxPoint x="370" y="180" as="targetPoint" />
          </mxGeometry>
        </mxCell>
        <mxCell id="eClR7Fw50EL44MByxG-4-21" value="" style="endArrow=open;endFill=1;endSize=12;html=1;rounded=0;" edge="1" parent="WIyWlLk6GJQsqaUBKTNV-1">
          <mxGeometry width="160" relative="1" as="geometry">
            <mxPoint x="230" y="220" as="sourcePoint" />
            <mxPoint x="200" y="270" as="targetPoint" />
          </mxGeometry>
        </mxCell>
        <mxCell id="eClR7Fw50EL44MByxG-4-24" value="" style="endArrow=open;endFill=1;endSize=12;html=1;rounded=0;" edge="1" parent="WIyWlLk6GJQsqaUBKTNV-1">
          <mxGeometry width="160" relative="1" as="geometry">
            <mxPoint x="250" y="220" as="sourcePoint" />
            <mxPoint x="278" y="270" as="targetPoint" />
          </mxGeometry>
        </mxCell>
        <mxCell id="eClR7Fw50EL44MByxG-4-25" value="" style="endArrow=open;endFill=1;endSize=12;html=1;rounded=0;" edge="1" parent="WIyWlLk6GJQsqaUBKTNV-1">
          <mxGeometry width="160" relative="1" as="geometry">
            <mxPoint x="499.45" y="220" as="sourcePoint" />
            <mxPoint x="500" y="270" as="targetPoint" />
          </mxGeometry>
        </mxCell>
      </root>
    </mxGraphModel>
  </diagram>
</mxfile>
